<svg width="32" height="32" viewBox="0 0 32 32" fill="none" xmlns="http://www.w3.org/2000/svg">
<path d="M9.32 16.734C9.21881 16.6403 9.13808 16.5268 9.08286 16.4005C9.02765 16.2742 8.99915 16.1378 8.99915 16C8.99915 15.8621 9.02765 15.7258 9.08286 15.5994C9.13808 15.4731 9.21881 15.3596 9.32 15.266L14.725 10.266C14.821 10.1746 14.9342 10.1032 15.058 10.056C15.1818 10.0087 15.3138 9.98659 15.4462 9.9908C15.5787 9.99501 15.709 10.0255 15.8295 10.0805C15.9501 10.1355 16.0585 10.2139 16.1485 10.3112C16.2385 10.4085 16.3083 10.5227 16.3537 10.6472C16.3992 10.7717 16.4195 10.9039 16.4134 11.0363C16.4073 11.1687 16.3749 11.2985 16.3182 11.4183C16.2615 11.5381 16.1815 11.6454 16.083 11.734L12.553 15H22C22.2652 15 22.5196 15.1053 22.7071 15.2929C22.8946 15.4804 23 15.7348 23 16C23 16.2652 22.8946 16.5195 22.7071 16.7071C22.5196 16.8946 22.2652 17 22 17H12.553L16.083 20.266C16.2733 20.4471 16.3847 20.6959 16.393 20.9585C16.4014 21.2211 16.306 21.4765 16.1276 21.6694C15.9492 21.8622 15.702 21.9771 15.4395 21.9892C15.1771 22.0013 14.9204 21.9096 14.725 21.734L9.321 16.734H9.32Z" fill="#2A497E"/>
<path fill-rule="evenodd" clip-rule="evenodd" d="M30 16C30 23.732 23.732 30 16 30C8.268 30 2 23.732 2 16C2 8.268 8.268 2 16 2C23.732 2 30 8.268 30 16ZM28 16C28 22.627 22.627 28 16 28C9.373 28 4 22.627 4 16C4 9.373 9.373 4 16 4C22.627 4 28 9.373 28 16Z" fill="#2A497E"/>
</svg>
