<svg width="26" height="25" viewBox="0 0 26 25" fill="none" xmlns="http://www.w3.org/2000/svg">
<path d="M21.9399 24.1185C22.9757 24.1185 23.8154 23.3102 23.8154 22.3131C23.8154 21.3161 22.9757 20.5078 21.9399 20.5078C20.9042 20.5078 20.0645 21.3161 20.0645 22.3131C20.0645 23.3102 20.9042 24.1185 21.9399 24.1185Z" fill="#2A497E" stroke="#2A497E" stroke-width="3" stroke-linecap="round" stroke-linejoin="round"/>
<path d="M9.43677 24.1185C10.4725 24.1185 11.3123 23.3102 11.3123 22.3131C11.3123 21.3161 10.4725 20.5078 9.43677 20.5078C8.40096 20.5078 7.56128 21.3161 7.56128 22.3131C7.56128 23.3102 8.40096 24.1185 9.43677 24.1185Z" fill="#2A497E" stroke="#2A497E" stroke-width="3" stroke-linecap="round" stroke-linejoin="round"/>
<path d="M3.8103 2.45446H25.0658L22.5652 15.6935H6.31096L3.8103 2.45446ZM3.8103 2.45446C3.60191 1.65209 2.55998 0.0473633 0.0593262 0.0473633" stroke="#2A497E" stroke-width="3" stroke-linecap="round" stroke-linejoin="round"/>
<path d="M22.5653 15.6936H6.31103H4.09892C1.86795 15.6936 0.68457 16.6338 0.68457 18.1007C0.68457 19.5676 1.86795 20.5078 4.09892 20.5078H21.9401" stroke="#2A497E" stroke-width="3" stroke-linecap="round" stroke-linejoin="round"/>
</svg>
