<svg width="30" height="30" viewBox="0 0 30 30" fill="none" xmlns="http://www.w3.org/2000/svg">
<path d="M26.25 30C27.4926 30 28.5 28.9926 28.5 27.75C28.5 26.5074 27.4926 25.5 26.25 25.5C25.0074 25.5 24 26.5074 24 27.75C24 28.9926 25.0074 30 26.25 30Z" fill="#2A497E" stroke="#2A497E" stroke-width="3" stroke-linecap="round" stroke-linejoin="round"/>
<path d="M11.25 30C12.4926 30 13.5 28.9926 13.5 27.75C13.5 26.5074 12.4926 25.5 11.25 25.5C10.0074 25.5 9 26.5074 9 27.75C9 28.9926 10.0074 30 11.25 30Z" fill="#2A497E" stroke="#2A497E" stroke-width="3" stroke-linecap="round" stroke-linejoin="round"/>
<path d="M4.5 3H30L27 19.5H7.5L4.5 3ZM4.5 3C4.25 1.99999 3 0 0 0" stroke="#2A497E" stroke-width="3" stroke-linecap="round" stroke-linejoin="round"/>
<path d="M27 19.5H7.5H4.84615C2.16969 19.5 0.75 20.6718 0.75 22.5C0.75 24.3282 2.16969 25.5 4.84615 25.5H26.25" stroke="#2A497E" stroke-width="3" stroke-linecap="round" stroke-linejoin="round"/>
</svg>
