<svg width="26" height="25" viewBox="0 0 26 25" fill="none" xmlns="http://www.w3.org/2000/svg">
<path d="M22.11 24.7578C23.1532 24.7578 23.9989 23.9525 23.9989 22.9592C23.9989 21.9659 23.1532 21.1606 22.11 21.1606C21.0668 21.1606 20.2211 21.9659 20.2211 22.9592C20.2211 23.9525 21.0668 24.7578 22.11 24.7578Z" fill="#2A497E" stroke="#2A497E" stroke-width="3" stroke-linecap="round" stroke-linejoin="round"/>
<path d="M9.5171 24.7578C10.5603 24.7578 11.406 23.9525 11.406 22.9592C11.406 21.9659 10.5603 21.1606 9.5171 21.1606C8.47387 21.1606 7.62817 21.9659 7.62817 22.9592C7.62817 23.9525 8.47387 24.7578 9.5171 24.7578Z" fill="#2A497E" stroke="#2A497E" stroke-width="3" stroke-linecap="round" stroke-linejoin="round"/>
<path d="M3.85036 3.17517H25.2582L22.7396 16.3646H6.36893L3.85036 3.17517ZM3.85036 3.17517C3.64048 2.37581 2.59108 0.7771 0.0725098 0.7771" stroke="#2A497E" stroke-width="3" stroke-linecap="round" stroke-linejoin="round"/>
<path d="M22.7396 16.3645H6.36893H4.14097C1.89401 16.3645 0.702148 17.3012 0.702148 18.7626C0.702148 20.224 1.89401 21.1606 4.14097 21.1606H22.11" stroke="#2A497E" stroke-width="3" stroke-linecap="round" stroke-linejoin="round"/>
</svg>
