<svg width="26" height="25" viewBox="0 0 26 25" fill="none" xmlns="http://www.w3.org/2000/svg">
<path d="M21.9401 24.1184C22.9759 24.1184 23.8156 23.3101 23.8156 22.3131C23.8156 21.3161 22.9759 20.5078 21.9401 20.5078C20.9044 20.5078 20.0646 21.3161 20.0646 22.3131C20.0646 23.3101 20.9044 24.1184 21.9401 24.1184Z" fill="#2A497E" stroke="#2A497E" stroke-width="3" stroke-linecap="round" stroke-linejoin="round"/>
<path d="M9.43686 24.1184C10.4726 24.1184 11.3123 23.3101 11.3123 22.3131C11.3123 21.3161 10.4726 20.5078 9.43686 20.5078C8.40105 20.5078 7.56137 21.3161 7.56137 22.3131C7.56137 23.3101 8.40105 24.1184 9.43686 24.1184Z" fill="#2A497E" stroke="#2A497E" stroke-width="3" stroke-linecap="round" stroke-linejoin="round"/>
<path d="M3.8104 2.45446H25.0659L22.5653 15.6935H6.31105L3.8104 2.45446ZM3.8104 2.45446C3.602 1.65209 2.56007 0.0473633 0.0594177 0.0473633" stroke="#2A497E" stroke-width="3" stroke-linecap="round" stroke-linejoin="round"/>
<path d="M22.5653 15.6935H6.31103H4.09892C1.86795 15.6935 0.68457 16.6337 0.68457 18.1006C0.68457 19.5675 1.86795 20.5077 4.09892 20.5077H21.9401" stroke="#2A497E" stroke-width="3" stroke-linecap="round" stroke-linejoin="round"/>
</svg>
