<svg width="26" height="25" viewBox="0 0 26 25" fill="none" xmlns="http://www.w3.org/2000/svg">
<path d="M21.9402 24.1183C22.976 24.1183 23.8157 23.31 23.8157 22.313C23.8157 21.316 22.976 20.5077 21.9402 20.5077C20.9044 20.5077 20.0647 21.316 20.0647 22.313C20.0647 23.31 20.9044 24.1183 21.9402 24.1183Z" fill="#2A497E" stroke="#2A497E" stroke-width="3" stroke-linecap="round" stroke-linejoin="round"/>
<path d="M9.43689 24.1183C10.4727 24.1183 11.3124 23.31 11.3124 22.313C11.3124 21.316 10.4727 20.5077 9.43689 20.5077C8.40108 20.5077 7.5614 21.316 7.5614 22.313C7.5614 23.31 8.40108 24.1183 9.43689 24.1183Z" fill="#2A497E" stroke="#2A497E" stroke-width="3" stroke-linecap="round" stroke-linejoin="round"/>
<path d="M3.81043 2.45443H25.066L22.5653 15.6935H6.31108L3.81043 2.45443ZM3.81043 2.45443C3.60203 1.65206 2.5601 0.0473328 0.0594482 0.0473328" stroke="#2A497E" stroke-width="3" stroke-linecap="round" stroke-linejoin="round"/>
<path d="M22.5653 15.6935H6.31109H4.09898C1.86801 15.6935 0.684631 16.6337 0.684631 18.1006C0.684631 19.5675 1.86801 20.5077 4.09898 20.5077H21.9402" stroke="#2A497E" stroke-width="3" stroke-linecap="round" stroke-linejoin="round"/>
</svg>
