<svg width="26" height="25" viewBox="0 0 26 25" fill="none" xmlns="http://www.w3.org/2000/svg">
<path d="M22.4675 24.2014C23.5107 24.2014 24.3565 23.3961 24.3565 22.4028C24.3565 21.4095 23.5107 20.6042 22.4675 20.6042C21.4243 20.6042 20.5786 21.4095 20.5786 22.4028C20.5786 23.3961 21.4243 24.2014 22.4675 24.2014Z" fill="#2A497E" stroke="#2A497E" stroke-width="3" stroke-linecap="round" stroke-linejoin="round"/>
<path d="M9.87464 24.2014C10.9178 24.2014 11.7636 23.3961 11.7636 22.4028C11.7636 21.4095 10.9178 20.6042 9.87464 20.6042C8.83141 20.6042 7.98572 21.4095 7.98572 22.4028C7.98572 23.3961 8.83141 24.2014 9.87464 24.2014Z" fill="#2A497E" stroke="#2A497E" stroke-width="3" stroke-linecap="round" stroke-linejoin="round"/>
<path d="M4.20791 2.61878H25.6158L23.0972 15.8082H6.72648L4.20791 2.61878ZM4.20791 2.61878C3.99802 1.81941 2.94862 0.220703 0.430054 0.220703" stroke="#2A497E" stroke-width="3" stroke-linecap="round" stroke-linejoin="round"/>
<path d="M23.0972 15.8081H6.72648H4.49851C2.25156 15.8081 1.05969 16.7448 1.05969 18.2062C1.05969 19.6676 2.25156 20.6042 4.49851 20.6042H22.4675" stroke="#2A497E" stroke-width="3" stroke-linecap="round" stroke-linejoin="round"/>
</svg>
