<svg width="26" height="25" viewBox="0 0 26 25" fill="none" xmlns="http://www.w3.org/2000/svg">
<path d="M22.7598 24.7578C23.803 24.7578 24.6487 23.9525 24.6487 22.9592C24.6487 21.9659 23.803 21.1606 22.7598 21.1606C21.7166 21.1606 20.8708 21.9659 20.8708 22.9592C20.8708 23.9525 21.7166 24.7578 22.7598 24.7578Z" fill="#2A497E" stroke="#2A497E" stroke-width="3" stroke-linecap="round" stroke-linejoin="round"/>
<path d="M10.1669 24.7578C11.2101 24.7578 12.0558 23.9525 12.0558 22.9592C12.0558 21.9659 11.2101 21.1606 10.1669 21.1606C9.12365 21.1606 8.27795 21.9659 8.27795 22.9592C8.27795 23.9525 9.12365 24.7578 10.1669 24.7578Z" fill="#2A497E" stroke="#2A497E" stroke-width="3" stroke-linecap="round" stroke-linejoin="round"/>
<path d="M4.50014 3.17517H25.908L23.3894 16.3646H7.01871L4.50014 3.17517ZM4.50014 3.17517C4.29026 2.37581 3.24086 0.7771 0.72229 0.7771" stroke="#2A497E" stroke-width="3" stroke-linecap="round" stroke-linejoin="round"/>
<path d="M23.3894 16.3645H7.01871H4.79075C2.54379 16.3645 1.35193 17.3012 1.35193 18.7626C1.35193 20.224 2.54379 21.1606 4.79075 21.1606H22.7598" stroke="#2A497E" stroke-width="3" stroke-linecap="round" stroke-linejoin="round"/>
</svg>
