<svg width="26" height="25" viewBox="0 0 26 25" fill="none" xmlns="http://www.w3.org/2000/svg">
<path d="M22.8108 24.7841C23.854 24.7841 24.6997 23.9788 24.6997 22.9856C24.6997 21.9923 23.854 21.187 22.8108 21.187C21.7676 21.187 20.9219 21.9923 20.9219 22.9856C20.9219 23.9788 21.7676 24.7841 22.8108 24.7841Z" fill="#2A497E" stroke="#2A497E" stroke-width="3" stroke-linecap="round" stroke-linejoin="round"/>
<path d="M10.2178 24.7841C11.261 24.7841 12.1067 23.9788 12.1067 22.9856C12.1067 21.9923 11.261 21.187 10.2178 21.187C9.17455 21.187 8.32886 21.9923 8.32886 22.9856C8.32886 23.9788 9.17455 24.7841 10.2178 24.7841Z" fill="#2A497E" stroke="#2A497E" stroke-width="3" stroke-linecap="round" stroke-linejoin="round"/>
<path d="M4.55105 3.20154H25.9589L23.4403 16.3909H7.06962L4.55105 3.20154ZM4.55105 3.20154C4.34116 2.40218 3.29176 0.803467 0.773193 0.803467" stroke="#2A497E" stroke-width="3" stroke-linecap="round" stroke-linejoin="round"/>
<path d="M23.4403 16.3909H7.06962H4.84165C2.5947 16.3909 1.40283 17.3276 1.40283 18.7889C1.40283 20.2503 2.5947 21.187 4.84165 21.187H22.8107" stroke="#2A497E" stroke-width="3" stroke-linecap="round" stroke-linejoin="round"/>
</svg>
