<svg width="26" height="25" viewBox="0 0 26 25" fill="none" xmlns="http://www.w3.org/2000/svg">
<path d="M21.9402 24.1184C22.976 24.1184 23.8157 23.3101 23.8157 22.3131C23.8157 21.3161 22.976 20.5078 21.9402 20.5078C20.9044 20.5078 20.0647 21.3161 20.0647 22.3131C20.0647 23.3101 20.9044 24.1184 21.9402 24.1184Z" fill="#2A497E" stroke="#2A497E" stroke-width="3" stroke-linecap="round" stroke-linejoin="round"/>
<path d="M9.43689 24.1184C10.4727 24.1184 11.3124 23.3101 11.3124 22.3131C11.3124 21.3161 10.4727 20.5078 9.43689 20.5078C8.40108 20.5078 7.5614 21.3161 7.5614 22.3131C7.5614 23.3101 8.40108 24.1184 9.43689 24.1184Z" fill="#2A497E" stroke="#2A497E" stroke-width="3" stroke-linecap="round" stroke-linejoin="round"/>
<path d="M3.81043 2.45446H25.066L22.5653 15.6935H6.31108L3.81043 2.45446ZM3.81043 2.45446C3.60203 1.65209 2.5601 0.0473633 0.0594482 0.0473633" stroke="#2A497E" stroke-width="3" stroke-linecap="round" stroke-linejoin="round"/>
<path d="M22.5653 15.6935H6.31103H4.09892C1.86795 15.6935 0.68457 16.6337 0.68457 18.1006C0.68457 19.5675 1.86795 20.5077 4.09892 20.5077H21.9401" stroke="#2A497E" stroke-width="3" stroke-linecap="round" stroke-linejoin="round"/>
</svg>
