<svg width="21" height="22" viewBox="0 0 21 22" fill="none" xmlns="http://www.w3.org/2000/svg">
<path fill-rule="evenodd" clip-rule="evenodd" d="M14.877 12.7812C16.2274 11.9034 17.2323 10.6663 17.7475 9.24707C18.2628 7.82789 18.262 6.29945 17.7453 4.88069C17.2286 3.46192 16.2225 2.22564 14.8711 1.34891C13.5198 0.472181 11.8924 0 10.2223 0C8.55209 0 6.92477 0.472181 5.5734 1.34891C4.22202 2.22564 3.21593 3.46192 2.69924 4.88069C2.18255 6.29945 2.18177 7.82789 2.69701 9.24707C3.21226 10.6663 4.21708 11.9034 5.56756 12.7812C4.03483 13.2739 2.70965 14.1772 1.77289 15.3676C0.836122 16.5581 0.333415 17.9778 0.333374 19.4329V20.3163C0.333374 20.5506 0.43756 20.7753 0.623013 20.941C0.808466 21.1066 1.05999 21.1997 1.32226 21.1997C1.58453 21.1997 1.83606 21.1066 2.02151 20.941C2.20697 20.7753 2.31115 20.5506 2.31115 20.3163V19.4329C2.31115 18.0272 2.93627 16.6791 4.04899 15.6851C5.1617 14.6912 6.67087 14.1327 8.24449 14.1327H12.2C13.7737 14.1327 15.2828 14.6912 16.3955 15.6851C17.5083 16.6791 18.1334 18.0272 18.1334 19.4329V20.3163C18.1334 20.5506 18.2376 20.7753 18.423 20.941C18.6085 21.1066 18.86 21.1997 19.1223 21.1997C19.3845 21.1997 19.6361 21.1066 19.8215 20.941C20.007 20.7753 20.1112 20.5506 20.1112 20.3163V19.4329C20.1111 17.9778 19.6084 16.5581 18.6716 15.3676C17.7349 14.1772 16.4097 13.2739 14.877 12.7812ZM4.28893 7.0658C4.28893 5.6601 4.91405 4.31197 6.02676 3.31799C7.13948 2.32401 8.64865 1.76559 10.2223 1.76559C11.7959 1.76559 13.305 2.32401 14.4178 3.31799C15.5305 4.31197 16.1556 5.6601 16.1556 7.0658C16.1556 8.4715 15.5305 9.81963 14.4178 10.8136C13.305 11.8076 11.7959 12.366 10.2223 12.366C8.64865 12.366 7.13948 11.8076 6.02676 10.8136C4.91405 9.81963 4.28893 8.4715 4.28893 7.0658Z" fill="#2A497E"/>
</svg>
