<svg width="26" height="25" viewBox="0 0 26 25" fill="none" xmlns="http://www.w3.org/2000/svg">
<path d="M22.7311 24.9677C23.7743 24.9677 24.62 24.1624 24.62 23.1692C24.62 22.1759 23.7743 21.3706 22.7311 21.3706C21.6879 21.3706 20.8422 22.1759 20.8422 23.1692C20.8422 24.1624 21.6879 24.9677 22.7311 24.9677Z" fill="#2A497E" stroke="#2A497E" stroke-width="3" stroke-linecap="round" stroke-linejoin="round"/>
<path d="M10.1382 24.9677C11.1814 24.9677 12.0271 24.1624 12.0271 23.1692C12.0271 22.1759 11.1814 21.3706 10.1382 21.3706C9.09496 21.3706 8.24927 22.1759 8.24927 23.1692C8.24927 24.1624 9.09496 24.9677 10.1382 24.9677Z" fill="#2A497E" stroke="#2A497E" stroke-width="3" stroke-linecap="round" stroke-linejoin="round"/>
<path d="M4.47146 3.38513H25.8793L23.3607 16.5745H6.99003L4.47146 3.38513ZM4.47146 3.38513C4.26157 2.58577 3.21217 0.987061 0.693604 0.987061" stroke="#2A497E" stroke-width="3" stroke-linecap="round" stroke-linejoin="round"/>
<path d="M23.3607 16.5745H6.99003H4.76206C2.51511 16.5745 1.32324 17.5111 1.32324 18.9725C1.32324 20.4339 2.51511 21.3706 4.76206 21.3706H22.7311" stroke="#2A497E" stroke-width="3" stroke-linecap="round" stroke-linejoin="round"/>
</svg>
