<svg width="26" height="25" viewBox="0 0 26 25" fill="none" xmlns="http://www.w3.org/2000/svg">
<path d="M22.7382 24.1185C23.7814 24.1185 24.6271 23.3102 24.6271 22.3131C24.6271 21.3161 23.7814 20.5078 22.7382 20.5078C21.695 20.5078 20.8492 21.3161 20.8492 22.3131C20.8492 23.3102 21.695 24.1185 22.7382 24.1185Z" fill="#2A497E" stroke="#2A497E" stroke-width="3" stroke-linecap="round" stroke-linejoin="round"/>
<path d="M10.1453 24.1185C11.1885 24.1185 12.0342 23.3102 12.0342 22.3131C12.0342 21.3161 11.1885 20.5078 10.1453 20.5078C9.10204 20.5078 8.25635 21.3161 8.25635 22.3131C8.25635 23.3102 9.10204 24.1185 10.1453 24.1185Z" fill="#2A497E" stroke="#2A497E" stroke-width="3" stroke-linecap="round" stroke-linejoin="round"/>
<path d="M4.47854 2.45446H25.8864L23.3678 15.6935H6.99711L4.47854 2.45446ZM4.47854 2.45446C4.26865 1.65209 3.21925 0.0473633 0.700684 0.0473633" stroke="#2A497E" stroke-width="3" stroke-linecap="round" stroke-linejoin="round"/>
<path d="M23.3678 15.6936H6.99711H4.76914C2.52219 15.6936 1.33032 16.6338 1.33032 18.1007C1.33032 19.5676 2.52219 20.5078 4.76914 20.5078H22.7382" stroke="#2A497E" stroke-width="3" stroke-linecap="round" stroke-linejoin="round"/>
</svg>
