<svg width="26" height="25" viewBox="0 0 26 25" fill="none" xmlns="http://www.w3.org/2000/svg">
<path d="M22.0885 24.6528C23.1317 24.6528 23.9774 23.8475 23.9774 22.8542C23.9774 21.8609 23.1317 21.0557 22.0885 21.0557C21.0453 21.0557 20.1996 21.8609 20.1996 22.8542C20.1996 23.8475 21.0453 24.6528 22.0885 24.6528Z" fill="#2A497E" stroke="#2A497E" stroke-width="3" stroke-linecap="round" stroke-linejoin="round"/>
<path d="M9.49561 24.6528C10.5388 24.6528 11.3845 23.8475 11.3845 22.8542C11.3845 21.8609 10.5388 21.0557 9.49561 21.0557C8.45239 21.0557 7.60669 21.8609 7.60669 22.8542C7.60669 23.8475 8.45239 24.6528 9.49561 24.6528Z" fill="#2A497E" stroke="#2A497E" stroke-width="3" stroke-linecap="round" stroke-linejoin="round"/>
<path d="M3.82888 3.07019H25.2367L22.7182 16.2596H6.34745L3.82888 3.07019ZM3.82888 3.07019C3.619 2.27083 2.5696 0.672119 0.0510254 0.672119" stroke="#2A497E" stroke-width="3" stroke-linecap="round" stroke-linejoin="round"/>
<path d="M22.7182 16.2595H6.34745H4.11948C1.87253 16.2595 0.680664 17.1962 0.680664 18.6576C0.680664 20.119 1.87253 21.0557 4.11948 21.0557H22.0885" stroke="#2A497E" stroke-width="3" stroke-linecap="round" stroke-linejoin="round"/>
</svg>
