<svg width="26" height="25" viewBox="0 0 26 25" fill="none" xmlns="http://www.w3.org/2000/svg">
<path d="M22.7893 24.6789C23.8325 24.6789 24.6782 23.8736 24.6782 22.8803C24.6782 21.8871 23.8325 21.0818 22.7893 21.0818C21.7461 21.0818 20.9004 21.8871 20.9004 22.8803C20.9004 23.8736 21.7461 24.6789 22.7893 24.6789Z" fill="#2A497E" stroke="#2A497E" stroke-width="3" stroke-linecap="round" stroke-linejoin="round"/>
<path d="M10.1963 24.6789C11.2395 24.6789 12.0852 23.8736 12.0852 22.8803C12.0852 21.8871 11.2395 21.0818 10.1963 21.0818C9.15307 21.0818 8.30737 21.8871 8.30737 22.8803C8.30737 23.8736 9.15307 24.6789 10.1963 24.6789Z" fill="#2A497E" stroke="#2A497E" stroke-width="3" stroke-linecap="round" stroke-linejoin="round"/>
<path d="M4.52956 3.09631H25.9374L23.4188 16.2857H7.04813L4.52956 3.09631ZM4.52956 3.09631C4.31968 2.29695 3.27028 0.698242 0.751709 0.698242" stroke="#2A497E" stroke-width="3" stroke-linecap="round" stroke-linejoin="round"/>
<path d="M23.4188 16.2856H7.04813H4.82017C2.57321 16.2856 1.38135 17.2223 1.38135 18.6837C1.38135 20.1451 2.57321 21.0818 4.82017 21.0818H22.7892" stroke="#2A497E" stroke-width="3" stroke-linecap="round" stroke-linejoin="round"/>
</svg>
