<svg width="26" height="25" viewBox="0 0 26 25" fill="none" xmlns="http://www.w3.org/2000/svg">
<path d="M22.11 24.1865C23.1532 24.1865 23.9989 23.3812 23.9989 22.3879C23.9989 21.3946 23.1532 20.5894 22.11 20.5894C21.0668 20.5894 20.2211 21.3946 20.2211 22.3879C20.2211 23.3812 21.0668 24.1865 22.11 24.1865Z" fill="#2A497E" stroke="#2A497E" stroke-width="3" stroke-linecap="round" stroke-linejoin="round"/>
<path d="M9.5171 24.1865C10.5603 24.1865 11.406 23.3812 11.406 22.3879C11.406 21.3946 10.5603 20.5894 9.5171 20.5894C8.47387 20.5894 7.62817 21.3946 7.62817 22.3879C7.62817 23.3812 8.47387 24.1865 9.5171 24.1865Z" fill="#2A497E" stroke="#2A497E" stroke-width="3" stroke-linecap="round" stroke-linejoin="round"/>
<path d="M3.85036 2.60388H25.2582L22.7396 15.7933H6.36893L3.85036 2.60388ZM3.85036 2.60388C3.64048 1.80452 2.59108 0.205811 0.0725098 0.205811" stroke="#2A497E" stroke-width="3" stroke-linecap="round" stroke-linejoin="round"/>
<path d="M22.7396 15.7932H6.36893H4.14097C1.89401 15.7932 0.702148 16.7299 0.702148 18.1913C0.702148 19.6527 1.89401 20.5894 4.14097 20.5894H22.11" stroke="#2A497E" stroke-width="3" stroke-linecap="round" stroke-linejoin="round"/>
</svg>
