<svg width="26" height="25" viewBox="0 0 26 25" fill="none" xmlns="http://www.w3.org/2000/svg">
<path d="M22.8108 24.2128C23.854 24.2128 24.6997 23.4076 24.6997 22.4143C24.6997 21.421 23.854 20.6157 22.8108 20.6157C21.7676 20.6157 20.9219 21.421 20.9219 22.4143C20.9219 23.4076 21.7676 24.2128 22.8108 24.2128Z" fill="#2A497E" stroke="#2A497E" stroke-width="3" stroke-linecap="round" stroke-linejoin="round"/>
<path d="M10.2178 24.2128C11.261 24.2128 12.1067 23.4076 12.1067 22.4143C12.1067 21.421 11.261 20.6157 10.2178 20.6157C9.17455 20.6157 8.32886 21.421 8.32886 22.4143C8.32886 23.4076 9.17455 24.2128 10.2178 24.2128Z" fill="#2A497E" stroke="#2A497E" stroke-width="3" stroke-linecap="round" stroke-linejoin="round"/>
<path d="M4.55105 2.63025H25.9589L23.4403 15.8196H7.06962L4.55105 2.63025ZM4.55105 2.63025C4.34116 1.83089 3.29176 0.232178 0.773193 0.232178" stroke="#2A497E" stroke-width="3" stroke-linecap="round" stroke-linejoin="round"/>
<path d="M23.4403 15.8196H7.06962H4.84165C2.5947 15.8196 1.40283 16.7563 1.40283 18.2177C1.40283 19.679 2.5947 20.6157 4.84165 20.6157H22.8107" stroke="#2A497E" stroke-width="3" stroke-linecap="round" stroke-linejoin="round"/>
</svg>
