<svg width="26" height="25" viewBox="0 0 26 25" fill="none" xmlns="http://www.w3.org/2000/svg">
<path d="M22.7526 24.1865C23.7958 24.1865 24.6415 23.3812 24.6415 22.3879C24.6415 21.3946 23.7958 20.5894 22.7526 20.5894C21.7094 20.5894 20.8636 21.3946 20.8636 22.3879C20.8636 23.3812 21.7094 24.1865 22.7526 24.1865Z" fill="#2A497E" stroke="#2A497E" stroke-width="3" stroke-linecap="round" stroke-linejoin="round"/>
<path d="M10.1597 24.1865C11.2029 24.1865 12.0486 23.3812 12.0486 22.3879C12.0486 21.3946 11.2029 20.5894 10.1597 20.5894C9.11645 20.5894 8.27075 21.3946 8.27075 22.3879C8.27075 23.3812 9.11645 24.1865 10.1597 24.1865Z" fill="#2A497E" stroke="#2A497E" stroke-width="3" stroke-linecap="round" stroke-linejoin="round"/>
<path d="M4.49294 2.60388H25.9008L23.3822 15.7933H7.01151L4.49294 2.60388ZM4.49294 2.60388C4.28306 1.80452 3.23366 0.205811 0.715088 0.205811" stroke="#2A497E" stroke-width="3" stroke-linecap="round" stroke-linejoin="round"/>
<path d="M23.3822 15.7932H7.01151H4.78354C2.53659 15.7932 1.34473 16.7299 1.34473 18.1913C1.34473 19.6527 2.53659 20.5894 4.78354 20.5894H22.7526" stroke="#2A497E" stroke-width="3" stroke-linecap="round" stroke-linejoin="round"/>
</svg>
