<svg width="26" height="25" viewBox="0 0 26 25" fill="none" xmlns="http://www.w3.org/2000/svg">
<path d="M22.4461 24.771C23.4892 24.771 24.335 23.9634 24.335 22.9672C24.335 21.971 23.4892 21.1633 22.4461 21.1633C21.4029 21.1633 20.5571 21.971 20.5571 22.9672C20.5571 23.9634 21.4029 24.771 22.4461 24.771Z" fill="#2A497E" stroke="#2A497E" stroke-width="3" stroke-linecap="round" stroke-linejoin="round"/>
<path d="M9.85316 24.771C10.8963 24.771 11.7421 23.9634 11.7421 22.9672C11.7421 21.971 10.8963 21.1633 9.85316 21.1633C8.80993 21.1633 7.96423 21.971 7.96423 22.9672C7.96423 23.9634 8.80993 24.771 9.85316 24.771Z" fill="#2A497E" stroke="#2A497E" stroke-width="3" stroke-linecap="round" stroke-linejoin="round"/>
<path d="M4.18642 3.12463H25.5943L23.0757 16.3529H6.70499L4.18642 3.12463ZM4.18642 3.12463C3.97654 2.32291 2.92714 0.719482 0.408569 0.719482" stroke="#2A497E" stroke-width="3" stroke-linecap="round" stroke-linejoin="round"/>
<path d="M23.0757 16.353H6.70499H4.47703C2.23007 16.353 1.03821 17.2925 1.03821 18.7582C1.03821 20.2239 2.23007 21.1633 4.47703 21.1633H22.4461" stroke="#2A497E" stroke-width="3" stroke-linecap="round" stroke-linejoin="round"/>
</svg>
