<svg width="20" height="22" viewBox="0 0 20 22" fill="none" xmlns="http://www.w3.org/2000/svg">
<path fill-rule="evenodd" clip-rule="evenodd" d="M14.707 12.7812C16.0727 11.9034 17.0888 10.6663 17.6098 9.24707C18.1308 7.82789 18.13 6.29945 17.6075 4.88069C17.0851 3.46192 16.0677 2.22564 14.7011 1.34891C13.3345 0.472181 11.6889 0 10 0C8.31106 0 6.66546 0.472181 5.2989 1.34891C3.93234 2.22564 2.91494 3.46192 2.39245 4.88069C1.86995 6.29945 1.86917 7.82789 2.3902 9.24707C2.91123 10.6663 3.92735 11.9034 5.293 12.7812C3.74305 13.2739 2.40298 14.1772 1.45569 15.3676C0.508397 16.5581 4.1125e-05 17.9778 0 19.4329V20.3163C0 20.5506 0.105357 20.7753 0.292893 20.941C0.48043 21.1066 0.734784 21.1997 1 21.1997C1.26522 21.1997 1.51957 21.1066 1.70711 20.941C1.89464 20.7753 2 20.5506 2 20.3163V19.4329C2 18.0272 2.63214 16.6791 3.75736 15.6851C4.88258 14.6912 6.4087 14.1327 8 14.1327H12C13.5913 14.1327 15.1174 14.6912 16.2426 15.6851C17.3679 16.6791 18 18.0272 18 19.4329V20.3163C18 20.5506 18.1054 20.7753 18.2929 20.941C18.4804 21.1066 18.7348 21.1997 19 21.1997C19.2652 21.1997 19.5196 21.1066 19.7071 20.941C19.8946 20.7753 20 20.5506 20 20.3163V19.4329C20 17.9778 19.4916 16.5581 18.5443 15.3676C17.597 14.1772 16.257 13.2739 14.707 12.7812ZM4 7.0658C4 5.6601 4.63214 4.31197 5.75736 3.31799C6.88258 2.32401 8.4087 1.76559 10 1.76559C11.5913 1.76559 13.1174 2.32401 14.2426 3.31799C15.3679 4.31197 16 5.6601 16 7.0658C16 8.4715 15.3679 9.81963 14.2426 10.8136C13.1174 11.8076 11.5913 12.366 10 12.366C8.4087 12.366 6.88258 11.8076 5.75736 10.8136C4.63214 9.81963 4 8.4715 4 7.0658Z" fill="#2A497E"/>
</svg>
