<svg width="30" height="30" viewBox="0 0 30 30" fill="none" xmlns="http://www.w3.org/2000/svg">
<path d="M25.9583 30C27.1871 30 28.1833 28.9926 28.1833 27.75C28.1833 26.5074 27.1871 25.5 25.9583 25.5C24.7295 25.5 23.7333 26.5074 23.7333 27.75C23.7333 28.9926 24.7295 30 25.9583 30Z" fill="#2A497E" stroke="#2A497E" stroke-width="3" stroke-linecap="round" stroke-linejoin="round"/>
<path d="M11.125 30C12.3538 30 13.35 28.9926 13.35 27.75C13.35 26.5074 12.3538 25.5 11.125 25.5C9.89619 25.5 8.90002 26.5074 8.90002 27.75C8.90002 28.9926 9.89619 30 11.125 30Z" fill="#2A497E" stroke="#2A497E" stroke-width="3" stroke-linecap="round" stroke-linejoin="round"/>
<path d="M4.45 3H29.6667L26.7 19.5H7.41667L4.45 3ZM4.45 3C4.20277 1.99999 2.96667 0 0 0" stroke="#2A497E" stroke-width="3" stroke-linecap="round" stroke-linejoin="round"/>
<path d="M26.7 19.5H7.4167H4.79234C2.14561 19.5 0.741699 20.6718 0.741699 22.5C0.741699 24.3282 2.14561 25.5 4.79234 25.5H25.9584" stroke="#2A497E" stroke-width="3" stroke-linecap="round" stroke-linejoin="round"/>
</svg>
